<svg width="16" height="16" viewBox="0 0 16 16" fill="none" xmlns="http://www.w3.org/2000/svg">
<path d="M6.2 2C5.77565 2 5.36869 2.16857 5.06863 2.46863C4.76857 2.76869 4.6 3.17565 4.6 3.6V11.6C4.6 12.0243 4.76857 12.4313 5.06863 12.7314C5.36869 13.0314 5.77565 13.2 6.2 13.2H11C11.4243 13.2 11.8313 13.0314 12.1314 12.7314C12.4314 12.4313 12.6 12.0243 12.6 11.6V3.6C12.6 3.17565 12.4314 2.76869 12.1314 2.46863C11.8313 2.16857 11.4243 2 11 2H6.2ZM5.4 3.6C5.4 3.38783 5.48429 3.18434 5.63431 3.03431C5.78434 2.88429 5.98783 2.8 6.2 2.8H11C11.2122 2.8 11.4157 2.88429 11.5657 3.03431C11.7157 3.18434 11.8 3.38783 11.8 3.6V11.6C11.8 11.8122 11.7157 12.0157 11.5657 12.1657C11.4157 12.3157 11.2122 12.4 11 12.4H6.2C5.98783 12.4 5.78434 12.3157 5.63431 12.1657C5.48429 12.0157 5.4 11.8122 5.4 11.6V3.6ZM3 5.2C3.00001 4.91915 3.07394 4.64325 3.21437 4.40002C3.3548 4.1568 3.55678 3.95483 3.8 3.8144V12C3.8 12.5304 4.01071 13.0391 4.38579 13.4142C4.76086 13.7893 5.26957 14 5.8 14H10.7856C10.6452 14.2432 10.4432 14.4452 10.2 14.5856C9.95675 14.7261 9.68085 14.8 9.4 14.8H5.8C5.05739 14.8 4.3452 14.505 3.8201 13.9799C3.295 13.4548 3 12.7426 3 12V5.2Z" fill="#D3D3D3"/>
</svg>
