<svg width="16" height="16" viewBox="0 0 16 16" fill="none" xmlns="http://www.w3.org/2000/svg">
<path d="M4.26666 7.99999L7.46666 10.6667L11.7333 5.33333M7.99999 15.4667C7.01946 15.4667 6.04852 15.2735 5.14262 14.8983C4.23672 14.5231 3.41361 13.9731 2.72026 13.2797C2.02692 12.5864 1.47693 11.7633 1.10169 10.8574C0.726456 9.95146 0.533325 8.98053 0.533325 7.99999C0.533325 7.01946 0.726456 6.04852 1.10169 5.14262C1.47693 4.23672 2.02692 3.41361 2.72026 2.72026C3.41361 2.02692 4.23672 1.47693 5.14262 1.10169C6.04852 0.726456 7.01946 0.533325 7.99999 0.533325C9.98028 0.533325 11.8795 1.31999 13.2797 2.72026C14.68 4.12053 15.4667 6.01971 15.4667 7.99999C15.4667 9.98028 14.68 11.8795 13.2797 13.2797C11.8795 14.68 9.98028 15.4667 7.99999 15.4667Z" stroke="#363636" stroke-width="1.06667"/>
</svg>
